<?xml version="1.0" encoding="UTF-8" standalone="no"?>
<!-- Created with Inkscape (http://www.inkscape.org/) -->

<svg
   xmlns:dc="http://purl.org/dc/elements/1.1/"
   xmlns:cc="http://creativecommons.org/ns#"
   xmlns:rdf="http://www.w3.org/1999/02/22-rdf-syntax-ns#"
   xmlns:svg="http://www.w3.org/2000/svg"
   xmlns="http://www.w3.org/2000/svg"
   xmlns:sodipodi="http://sodipodi.sourceforge.net/DTD/sodipodi-0.dtd"
   xmlns:inkscape="http://www.inkscape.org/namespaces/inkscape"
   width="32"
   height="32"
   id="svg2"
   version="1.1"
   inkscape:version="0.48.4 r9939"
   inkscape:export-filename="D:\GitRepos\LD32\floorTop.png"
   inkscape:export-xdpi="180"
   inkscape:export-ydpi="180"
   sodipodi:docname="Neues Dokument 1">
  <defs
     id="defs4" />
  <sodipodi:namedview
     id="base"
     pagecolor="#ffffff"
     bordercolor="#666666"
     borderopacity="1.0"
     inkscape:pageopacity="0.0"
     inkscape:pageshadow="2"
     inkscape:zoom="11.2"
     inkscape:cx="38.088529"
     inkscape:cy="18.186085"
     inkscape:document-units="px"
     inkscape:current-layer="layer1"
     showgrid="true"
     inkscape:window-width="1920"
     inkscape:window-height="1027"
     inkscape:window-x="-8"
     inkscape:window-y="-8"
     inkscape:window-maximized="1">
    <inkscape:grid
       type="xygrid"
       id="grid2985"
       empspacing="5"
       visible="true"
       enabled="true"
       snapvisiblegridlinesonly="true" />
  </sodipodi:namedview>
  <metadata
     id="metadata7">
    <rdf:RDF>
      <cc:Work
         rdf:about="">
        <dc:format>image/svg+xml</dc:format>
        <dc:type
           rdf:resource="http://purl.org/dc/dcmitype/StillImage" />
        <dc:title></dc:title>
      </cc:Work>
    </rdf:RDF>
  </metadata>
  <g
     inkscape:label="Ebene 1"
     inkscape:groupmode="layer"
     id="layer1"
     transform="translate(0,-1020.3622)">
    <rect
       style="fill:#4e342e;fill-opacity:1;fill-rule:nonzero;stroke:none;stroke-width:2;stroke-linecap:round;stroke-linejoin:miter;stroke-miterlimit:4;stroke-opacity:1;stroke-dasharray:none;stroke-dashoffset:0"
       id="rect3761"
       width="32"
       height="32"
       x="0"
       y="0"
       transform="translate(0,1020.3622)"
       rx="0"
       ry="0" />
    <path
       sodipodi:type="arc"
       style="fill:#65433c;fill-opacity:1;fill-rule:nonzero;stroke:none"
       id="path3763"
       sodipodi:cx="4"
       sodipodi:cy="29"
       sodipodi:rx="1"
       sodipodi:ry="1"
       d="m 5,29 a 1,1 0 1 1 -2,0 1,1 0 1 1 2,0 z"
       transform="translate(0,1020.3622)" />
    <path
       sodipodi:type="arc"
       style="fill:#65433c;fill-opacity:1;fill-rule:nonzero;stroke:none"
       id="path3765"
       sodipodi:cx="10.5"
       sodipodi:cy="28"
       sodipodi:rx="1.5"
       sodipodi:ry="1"
       d="m 12,28 a 1.5,1 0 1 1 -3,0 1.5,1 0 1 1 3,0 z"
       transform="translate(0,1020.3622)" />
    <path
       sodipodi:type="arc"
       style="fill:#65433c;fill-opacity:1;fill-rule:nonzero;stroke:none"
       id="path3767"
       sodipodi:cx="19.5"
       sodipodi:cy="25.5"
       sodipodi:rx="1.5"
       sodipodi:ry="1.5"
       d="m 21,25.5 a 1.5,1.5 0 1 1 -3,0 1.5,1.5 0 1 1 3,0 z"
       transform="translate(0,1020.3622)" />
    <path
       sodipodi:type="arc"
       style="fill:#65433c;fill-opacity:1;fill-rule:nonzero;stroke:none"
       id="path3769"
       sodipodi:cx="26"
       sodipodi:cy="29.5"
       sodipodi:rx="1"
       sodipodi:ry="1.5"
       d="m 27,29.5 a 1,1.5 0 1 1 -2,0 1,1.5 0 1 1 2,0 z"
       transform="translate(0,1020.3622)" />
    <path
       sodipodi:type="arc"
       style="fill:#65433c;fill-opacity:1;fill-rule:nonzero;stroke:none"
       id="path3771"
       sodipodi:cx="16.5"
       sodipodi:cy="29"
       sodipodi:rx="1.5"
       sodipodi:ry="1"
       d="m 18,29 a 1.5,1 0 1 1 -3,0 1.5,1 0 1 1 3,0 z"
       transform="translate(0,1020.3622)" />
    <path
       sodipodi:type="arc"
       style="fill:#65433c;fill-opacity:1;fill-rule:nonzero;stroke:none"
       id="path3773"
       sodipodi:cx="4.5"
       sodipodi:cy="22"
       sodipodi:rx="1.5"
       sodipodi:ry="1"
       d="m 6,22 a 1.5,1 0 1 1 -3,0 1.5,1 0 1 1 3,0 z"
       transform="translate(0,1020.3622)" />
    <path
       sodipodi:type="arc"
       style="fill:#65433c;fill-opacity:1;fill-rule:nonzero;stroke:none"
       id="path3775"
       sodipodi:cx="13.5"
       sodipodi:cy="21"
       sodipodi:rx="1.5"
       sodipodi:ry="2"
       d="m 15,21 a 1.5,2 0 1 1 -3,0 1.5,2 0 1 1 3,0 z"
       transform="translate(0,1020.3622)" />
    <path
       sodipodi:type="arc"
       style="fill:#65433c;fill-opacity:1;fill-rule:nonzero;stroke:none"
       id="path3777"
       sodipodi:cx="23.5"
       sodipodi:cy="18"
       sodipodi:rx="1.5"
       sodipodi:ry="1"
       d="m 25,18 a 1.5,1 0 1 1 -3,0 1.5,1 0 1 1 3,0 z"
       transform="translate(0,1020.3622)" />
    <path
       sodipodi:type="arc"
       style="fill:#65433c;fill-opacity:1;fill-rule:nonzero;stroke:none"
       id="path3779"
       sodipodi:cx="28.5"
       sodipodi:cy="23"
       sodipodi:rx="1.5"
       sodipodi:ry="1"
       d="m 30,23 a 1.5,1 0 1 1 -3,0 1.5,1 0 1 1 3,0 z"
       transform="translate(0,1020.3622)" />
    <path
       sodipodi:type="arc"
       style="fill:#65433c;fill-opacity:1;fill-rule:nonzero;stroke:none"
       id="path3781"
       sodipodi:cx="17"
       sodipodi:cy="17"
       sodipodi:rx="1"
       sodipodi:ry="1"
       d="m 18,17 a 1,1 0 1 1 -2,0 1,1 0 1 1 2,0 z"
       transform="translate(0,1020.3622)" />
    <path
       sodipodi:type="arc"
       style="fill:#65433c;fill-opacity:1;fill-rule:nonzero;stroke:none"
       id="path3783"
       sodipodi:cx="7"
       sodipodi:cy="15.5"
       sodipodi:rx="2"
       sodipodi:ry="1.5"
       d="m 9,15.5 a 2,1.5 0 1 1 -4,0 2,1.5 0 1 1 4,0 z"
       transform="translate(0,1020.3622)" />
    <path
       sodipodi:type="arc"
       style="fill:#65433c;fill-opacity:1;fill-rule:nonzero;stroke:none"
       id="path3785"
       sodipodi:cx="14"
       sodipodi:cy="13"
       sodipodi:rx="2"
       sodipodi:ry="1"
       d="m 16,13 a 2,1 0 1 1 -4,0 2,1 0 1 1 4,0 z"
       transform="translate(0,1020.3622)" />
    <path
       sodipodi:type="arc"
       style="fill:#65433c;fill-opacity:1;fill-rule:nonzero;stroke:none"
       id="path3787"
       sodipodi:cx="25"
       sodipodi:cy="13.5"
       sodipodi:rx="1"
       sodipodi:ry="1.5"
       d="m 26,13.5 a 1,1.5 0 1 1 -2,0 1,1.5 0 1 1 2,0 z"
       transform="translate(0,1020.3622)" />
    <path
       sodipodi:type="arc"
       style="fill:#65433c;fill-opacity:1;fill-rule:nonzero;stroke:none"
       id="path3789"
       sodipodi:cx="29"
       sodipodi:cy="16"
       sodipodi:rx="1"
       sodipodi:ry="1"
       d="m 30,16 a 1,1 0 1 1 -2,0 1,1 0 1 1 2,0 z"
       transform="translate(0,1020.3622)" />
    <path
       sodipodi:type="arc"
       style="fill:#65433c;fill-opacity:1;fill-rule:nonzero;stroke:none"
       id="path3791"
       sodipodi:cx="20"
       sodipodi:cy="14"
       sodipodi:rx="2"
       sodipodi:ry="1"
       d="m 22,14 a 2,1 0 1 1 -4,0 2,1 0 1 1 4,0 z"
       transform="translate(0,1020.3622)" />
    <path
       sodipodi:type="arc"
       style="fill:#65433c;fill-opacity:1;fill-rule:nonzero;stroke:none"
       id="path3793"
       sodipodi:cx="3.5"
       sodipodi:cy="12"
       sodipodi:rx="1.5"
       sodipodi:ry="2"
       d="m 5,12 a 1.5,2 0 1 1 -3,0 1.5,2 0 1 1 3,0 z"
       transform="translate(0,1020.3622)" />
    <path
       sodipodi:type="arc"
       style="fill:#65433c;fill-opacity:1;fill-rule:nonzero;stroke:none"
       id="path3795"
       sodipodi:cx="1.5"
       sodipodi:cy="18"
       sodipodi:rx="1.5"
       sodipodi:ry="1"
       d="m 3,18 a 1.5,1 0 1 1 -3,0 1.5,1 0 1 1 3,0 z"
       transform="translate(0,1020.3622)" />
    <path
       sodipodi:type="arc"
       style="fill:#65433c;fill-opacity:1;fill-rule:nonzero;stroke:none"
       id="path3797"
       sodipodi:cx="7.5"
       sodipodi:cy="8"
       sodipodi:rx="1.5"
       sodipodi:ry="1"
       d="M 9,8 A 1.5,1 0 1 1 6,8 1.5,1 0 1 1 9,8 z"
       transform="translate(0,1020.3622)" />
    <path
       sodipodi:type="arc"
       style="fill:#65433c;fill-opacity:1;fill-rule:nonzero;stroke:none"
       id="path3799"
       sodipodi:cx="19.5"
       sodipodi:cy="8.5"
       sodipodi:rx="2.5"
       sodipodi:ry="1.5"
       d="m 22,8.5 a 2.5,1.5 0 1 1 -5,0 2.5,1.5 0 1 1 5,0 z"
       transform="translate(0,1020.3622)" />
    <path
       sodipodi:type="arc"
       style="fill:#65433c;fill-opacity:1;fill-rule:nonzero;stroke:none"
       id="path3801"
       sodipodi:cx="13.5"
       sodipodi:cy="5.5"
       sodipodi:rx="1.5"
       sodipodi:ry="1.5"
       d="m 15,5.5 a 1.5,1.5 0 1 1 -3,0 1.5,1.5 0 1 1 3,0 z"
       transform="translate(0,1020.3622)" />
    <path
       sodipodi:type="arc"
       style="fill:#65433c;fill-opacity:1;fill-rule:nonzero;stroke:none"
       id="path3805"
       sodipodi:cx="3.5"
       sodipodi:cy="3.5"
       sodipodi:rx="2.5"
       sodipodi:ry="1.5"
       d="m 6,3.5 a 2.5,1.5 0 1 1 -5,0 2.5,1.5 0 1 1 5,0 z"
       transform="translate(0,1020.3622)" />
    <path
       sodipodi:type="arc"
       style="fill:#65433c;fill-opacity:1;fill-rule:nonzero;stroke:none"
       id="path3807"
       sodipodi:cx="26"
       sodipodi:cy="4.5"
       sodipodi:rx="2"
       sodipodi:ry="1.5"
       d="m 28,4.5 a 2,1.5 0 1 1 -4,0 2,1.5 0 1 1 4,0 z"
       transform="translate(0,1020.3622)" />
    <path
       sodipodi:type="arc"
       style="fill:#65433c;fill-opacity:1;fill-rule:nonzero;stroke:none"
       id="path3809"
       sodipodi:cx="19.5"
       sodipodi:cy="1.5"
       sodipodi:rx="2.5"
       sodipodi:ry="1.5"
       d="m 22,1.5 a 2.5,1.5 0 1 1 -5,0 2.5,1.5 0 1 1 5,0 z"
       transform="translate(0,1020.3622)" />
    <path
       sodipodi:type="arc"
       style="fill:#65433c;fill-opacity:1;fill-rule:nonzero;stroke:none"
       id="path3811"
       sodipodi:cx="9.5"
       sodipodi:cy="1"
       sodipodi:rx="1.5"
       sodipodi:ry="1"
       d="M 11,1 A 1.5,1 0 1 1 8,1 1.5,1 0 1 1 11,1 z"
       transform="translate(0,1020.3622)" />
    <path
       sodipodi:type="arc"
       style="fill:#65433c;fill-opacity:1;fill-rule:nonzero;stroke:none"
       id="path3813"
       sodipodi:cx="30.5"
       sodipodi:cy="11"
       sodipodi:rx="1.5"
       sodipodi:ry="2"
       d="m 32,11 a 1.5,2 0 1 1 -3,0 1.5,2 0 1 1 3,0 z"
       transform="translate(0,1020.3622)" />
    <path
       sodipodi:type="arc"
       style="fill:#65433c;fill-opacity:1;fill-rule:nonzero;stroke:none"
       id="path3815"
       sodipodi:cx="26"
       sodipodi:cy="9"
       sodipodi:rx="1"
       sodipodi:ry="1"
       d="m 27,9 a 1,1 0 1 1 -2,0 1,1 0 1 1 2,0 z"
       transform="translate(0,1020.3622)" />
    <path
       sodipodi:type="arc"
       style="fill:#65433c;fill-opacity:1;fill-rule:nonzero;stroke:none"
       id="path3817"
       sodipodi:cx="30.5"
       sodipodi:cy="30.5"
       sodipodi:rx="1.5"
       sodipodi:ry="1.5"
       d="m 32,30.5 a 1.5,1.5 0 1 1 -3,0 1.5,1.5 0 1 1 3,0 z"
       transform="translate(0,1020.3622)" />
    <path
       sodipodi:type="arc"
       style="fill:#65433c;fill-opacity:1;fill-rule:nonzero;stroke:none"
       id="path3819"
       sodipodi:cx="1"
       sodipodi:cy="25"
       sodipodi:rx="1"
       sodipodi:ry="1"
       d="m 2,25 a 1,1 0 1 1 -2,0 1,1 0 1 1 2,0 z"
       transform="translate(0,1020.3622)" />
    <path
       sodipodi:type="arc"
       style="fill:#867564;fill-opacity:1;fill-rule:nonzero;stroke:none"
       id="path3827"
       sodipodi:cx="4"
       sodipodi:cy="26"
       sodipodi:rx="2"
       sodipodi:ry="3"
       d="m 6,26 a 2,3 0 1 1 -4,0 2,3 0 1 1 4,0 z"
       transform="translate(0,1020.3622)" />
    <path
       sodipodi:type="arc"
       style="fill:#867564;fill-opacity:1;fill-rule:nonzero;stroke:none"
       id="path3831"
       sodipodi:cx="9.5"
       sodipodi:cy="13"
       sodipodi:rx="2.5"
       sodipodi:ry="3"
       d="m 12,13 a 2.5,3 0 1 1 -5,0 2.5,3 0 1 1 5,0 z"
       transform="translate(0,1020.3622)" />
    <path
       sodipodi:type="arc"
       style="fill:#867564;fill-opacity:1;fill-rule:nonzero;stroke:none"
       id="path3833"
       sodipodi:cx="28"
       sodipodi:cy="12"
       sodipodi:rx="3"
       sodipodi:ry="2"
       d="m 31,12 a 3,2 0 1 1 -6,0 3,2 0 1 1 6,0 z"
       transform="translate(0,1020.3622)" />
    <path
       sodipodi:type="arc"
       style="fill:#867564;fill-opacity:1;fill-rule:nonzero;stroke:none"
       id="path3835"
       sodipodi:cx="5.5"
       sodipodi:cy="2.5"
       sodipodi:rx="2.5"
       sodipodi:ry="1.5"
       d="m 8,2.5 a 2.5,1.5 0 1 1 -5,0 2.5,1.5 0 1 1 5,0 z"
       transform="translate(0,1020.3622)" />
    <path
       sodipodi:type="arc"
       style="fill:#867564;fill-opacity:1;fill-rule:nonzero;stroke:none"
       id="path3837"
       sodipodi:cx="1"
       sodipodi:cy="15"
       sodipodi:rx="1"
       sodipodi:ry="1"
       d="m 2,15 a 1,1 0 1 1 -2,0 1,1 0 1 1 2,0 z"
       transform="translate(0,1020.3622)" />
    <path
       sodipodi:type="arc"
       style="fill:#867564;fill-opacity:1;fill-rule:nonzero;stroke:none"
       id="path3839"
       sodipodi:cx="10.5"
       sodipodi:cy="30.5"
       sodipodi:rx="0.5"
       sodipodi:ry="0.5"
       d="m 11,30.5 a 0.5,0.5 0 1 1 -1,0 0.5,0.5 0 1 1 1,0 z"
       transform="translate(0,1020.3622)" />
    <path
       sodipodi:type="arc"
       style="fill:#867564;fill-opacity:1;fill-rule:nonzero;stroke:none"
       id="path3841"
       sodipodi:cx="8"
       sodipodi:cy="21.5"
       sodipodi:rx="1"
       sodipodi:ry="0.5"
       d="m 9,21.5 a 1,0.5 0 1 1 -2,0 1,0.5 0 1 1 2,0 z"
       transform="translate(0,1020.3622)" />
    <path
       sodipodi:type="arc"
       style="fill:#867564;fill-opacity:1;fill-rule:nonzero;stroke:none"
       id="path3843"
       sodipodi:cx="23.5"
       sodipodi:cy="18.5"
       sodipodi:rx="0.5"
       sodipodi:ry="0.5"
       d="m 24,18.5 a 0.5,0.5 0 1 1 -1,0 0.5,0.5 0 1 1 1,0 z"
       transform="translate(0,1020.3622)" />
    <path
       sodipodi:type="arc"
       style="fill:#867564;fill-opacity:1;fill-rule:nonzero;stroke:none"
       id="path3845"
       sodipodi:cx="16.5"
       sodipodi:cy="14.5"
       sodipodi:rx="0.5"
       sodipodi:ry="0.5"
       d="m 17,14.5 a 0.5,0.5 0 1 1 -1,0 0.5,0.5 0 1 1 1,0 z"
       transform="translate(0,1020.3622)" />
    <path
       sodipodi:type="arc"
       style="fill:#867564;fill-opacity:1;fill-rule:nonzero;stroke:none"
       id="path3847"
       sodipodi:cx="18.5"
       sodipodi:cy="20.5"
       sodipodi:rx="0.5"
       sodipodi:ry="0.5"
       d="m 19,20.5 a 0.5,0.5 0 1 1 -1,0 0.5,0.5 0 1 1 1,0 z"
       transform="translate(0,1020.3622)" />
    <path
       sodipodi:type="arc"
       style="fill:#867564;fill-opacity:1;fill-rule:nonzero;stroke:none"
       id="path3849"
       sodipodi:cx="12.5"
       sodipodi:cy="17.5"
       sodipodi:rx="0.5"
       sodipodi:ry="0.5"
       d="m 13,17.5 a 0.5,0.5 0 1 1 -1,0 0.5,0.5 0 1 1 1,0 z"
       transform="translate(0,1020.3622)" />
    <path
       sodipodi:type="arc"
       style="fill:#867564;fill-opacity:1;fill-rule:nonzero;stroke:none"
       id="path3851"
       sodipodi:cx="29.5"
       sodipodi:cy="21"
       sodipodi:rx="0.5"
       sodipodi:ry="1"
       d="m 30,21 a 0.5,1 0 1 1 -1,0 0.5,1 0 1 1 1,0 z"
       transform="translate(0,1020.3622)" />
    <path
       sodipodi:type="arc"
       style="fill:#867564;fill-opacity:1;fill-rule:nonzero;stroke:none"
       id="path3853"
       sodipodi:cx="28.5"
       sodipodi:cy="6"
       sodipodi:rx="0.5"
       sodipodi:ry="1"
       d="m 29,6 a 0.5,1 0 1 1 -1,0 0.5,1 0 1 1 1,0 z"
       transform="translate(0,1020.3622)" />
    <path
       sodipodi:type="arc"
       style="fill:#867564;fill-opacity:1;fill-rule:nonzero;stroke:none"
       id="path3855"
       sodipodi:cx="30.5"
       sodipodi:cy="2.5"
       sodipodi:rx="1.5"
       sodipodi:ry="1.5"
       d="m 32,2.5 a 1.5,1.5 0 1 1 -3,0 1.5,1.5 0 1 1 3,0 z"
       transform="translate(0,1020.3622)" />
    <path
       sodipodi:type="arc"
       style="fill:#867564;fill-opacity:1;fill-rule:nonzero;stroke:none"
       id="path3857"
       sodipodi:cx="25.5"
       sodipodi:cy="1.5"
       sodipodi:rx="0.5"
       sodipodi:ry="0.5"
       d="m 26,1.5 a 0.5,0.5 0 1 1 -1,0 0.5,0.5 0 1 1 1,0 z"
       transform="translate(0,1020.3622)" />
    <path
       sodipodi:type="arc"
       style="fill:#867564;fill-opacity:1;fill-rule:nonzero;stroke:none"
       id="path3859"
       sodipodi:cx="16.5"
       sodipodi:cy="4.5"
       sodipodi:rx="1.5"
       sodipodi:ry="0.5"
       d="m 18,4.5 a 1.5,0.5 0 1 1 -3,0 1.5,0.5 0 1 1 3,0 z"
       transform="translate(0,1020.3622)" />
    <path
       sodipodi:type="arc"
       style="fill:#867564;fill-opacity:1;fill-rule:nonzero;stroke:none"
       id="path3861"
       sodipodi:cx="22"
       sodipodi:cy="8"
       sodipodi:rx="1"
       sodipodi:ry="1"
       d="m 23,8 a 1,1 0 1 1 -2,0 1,1 0 1 1 2,0 z"
       transform="translate(0,1020.3622)" />
    <path
       sodipodi:type="arc"
       style="fill:#867564;fill-opacity:1;fill-rule:nonzero;stroke:none"
       id="path3863"
       sodipodi:cx="16"
       sodipodi:cy="8"
       sodipodi:rx="1"
       sodipodi:ry="1"
       d="m 17,8 a 1,1 0 1 1 -2,0 1,1 0 1 1 2,0 z"
       transform="translate(0,1020.3622)" />
    <path
       sodipodi:type="arc"
       style="fill:#867564;fill-opacity:1;fill-rule:nonzero;stroke:none"
       id="path3865"
       sodipodi:cx="9.5"
       sodipodi:cy="6.5"
       sodipodi:rx="1.5"
       sodipodi:ry="0.5"
       d="m 11,6.5 a 1.5,0.5 0 1 1 -3,0 1.5,0.5 0 1 1 3,0 z"
       transform="translate(0,1020.3622)" />
    <path
       sodipodi:type="arc"
       style="fill:#867564;fill-opacity:1;fill-rule:nonzero;stroke:none"
       id="path3867"
       sodipodi:cx="3"
       sodipodi:cy="7.5"
       sodipodi:rx="1"
       sodipodi:ry="1.5"
       d="m 4,7.5 a 1,1.5 0 1 1 -2,0 1,1.5 0 1 1 2,0 z"
       transform="translate(0,1020.3622)" />
    <path
       sodipodi:type="arc"
       style="fill:#867564;fill-opacity:1;fill-rule:nonzero;stroke:none"
       id="path3869"
       sodipodi:cx="12"
       sodipodi:cy="26"
       sodipodi:rx="1"
       sodipodi:ry="1"
       d="m 13,26 a 1,1 0 1 1 -2,0 1,1 0 1 1 2,0 z"
       transform="translate(0,1020.3622)" />
    <path
       sodipodi:type="arc"
       style="fill:#867564;fill-opacity:1;fill-rule:nonzero;stroke:none"
       id="path3871"
       sodipodi:cx="18.5"
       sodipodi:cy="32"
       sodipodi:rx="1.5"
       sodipodi:ry="1"
       d="m 20,32 a 1.5,1 0 1 1 -3,0 1.5,1 0 1 1 3,0 z"
       transform="translate(0,1020.3622)" />
    <path
       sodipodi:type="arc"
       style="fill:#867564;fill-opacity:1;fill-rule:nonzero;stroke:none"
       id="path3875"
       sodipodi:cx="18.5"
       sodipodi:cy="0"
       sodipodi:rx="1.5"
       sodipodi:ry="1"
       d="m 20,0 a 1.5,1 0 1 1 -3,0 1.5,1 0 1 1 3,0 z"
       transform="translate(0,1020.3622)" />
    <path
       sodipodi:type="arc"
       style="fill:#867564;fill-opacity:1;fill-rule:nonzero;stroke:none"
       id="path3877"
       sodipodi:cx="19.5"
       sodipodi:cy="24"
       sodipodi:rx="2.5"
       sodipodi:ry="1"
       d="m 22,24 a 2.5,1 0 1 1 -5,0 2.5,1 0 1 1 5,0 z"
       transform="translate(0,1020.3622)" />
    <path
       sodipodi:type="arc"
       style="fill:#867564;fill-opacity:1;fill-rule:nonzero;stroke:none"
       id="path3879"
       sodipodi:cx="26"
       sodipodi:cy="29"
       sodipodi:rx="2"
       sodipodi:ry="2"
       d="m 28,29 a 2,2 0 1 1 -4,0 2,2 0 1 1 4,0 z"
       transform="translate(0,1020.3622)" />
    <path
       sodipodi:type="arc"
       style="fill:#867564;fill-opacity:1;fill-rule:nonzero;stroke:none"
       id="path3881"
       sodipodi:cx="19"
       sodipodi:cy="27.5"
       sodipodi:rx="1"
       sodipodi:ry="0.5"
       d="m 20,27.5 a 1,0.5 0 1 1 -2,0 1,0.5 0 1 1 2,0 z"
       transform="translate(0,1020.3622)" />
    <path
       sodipodi:type="arc"
       style="fill:#867564;fill-opacity:1;fill-rule:nonzero;stroke:none"
       id="path3883"
       sodipodi:cx="27"
       sodipodi:cy="24.5"
       sodipodi:rx="1"
       sodipodi:ry="0.5"
       d="m 28,24.5 a 1,0.5 0 1 1 -2,0 1,0.5 0 1 1 2,0 z"
       transform="translate(0,1020.3622)" />
    <path
       sodipodi:type="arc"
       style="fill:#867564;fill-opacity:1;fill-rule:nonzero;stroke:none"
       id="path3888"
       sodipodi:cx="21.5"
       sodipodi:cy="30.5"
       sodipodi:rx="0.5"
       sodipodi:ry="0.5"
       d="m 22,30.5 a 0.5,0.5 0 1 1 -1,0 0.5,0.5 0 1 1 1,0 z"
       transform="translate(0,1020.3622)" />
    <path
       sodipodi:type="arc"
       style="fill:#867564;fill-opacity:1;fill-rule:nonzero;stroke:none"
       id="path3890"
       sodipodi:cx="23.5"
       sodipodi:cy="23"
       sodipodi:rx="0.5"
       sodipodi:ry="1"
       d="m 24,23 a 0.5,1 0 1 1 -1,0 0.5,1 0 1 1 1,0 z"
       transform="translate(0,1020.3622)" />
    <path
       style="fill:#2e7d32;fill-opacity:1;stroke:none"
       d="m 0,1025.3622 4,3 4,-3 4,3 4,-3 4,3 4,-3 4,3 4,-3 0,-5 -32,0 z"
       id="path2989"
       inkscape:connector-curvature="0" />
    <path
       style="fill:none;stroke:#689f38;stroke-width:2;stroke-linecap:butt;stroke-linejoin:miter;stroke-miterlimit:4;stroke-opacity:1;stroke-dasharray:none"
       d="m 0,1020.3622 32,0"
       id="path3759"
       inkscape:connector-curvature="0" />
  </g>
</svg>
